%TF.GenerationSoftware,KiCad,Pcbnew,9.0.7*%
%TF.CreationDate,2026-01-11T18:10:27+01:00*%
%TF.ProjectId,MacroPad,4d616372-6f50-4616-942e-6b696361645f,rev?*%
%TF.SameCoordinates,Original*%
%TF.FileFunction,Copper,L2,Bot*%
%TF.FilePolarity,Positive*%
%FSLAX46Y46*%
G04 Gerber Fmt 4.6, Leading zero omitted, Abs format (unit mm)*
G04 Created by KiCad (PCBNEW 9.0.7) date 2026-01-11 18:10:27*
%MOMM*%
%LPD*%
G01*
G04 APERTURE LIST*
%TA.AperFunction,ComponentPad*%
%ADD10R,1.700000X1.700000*%
%TD*%
%TA.AperFunction,ComponentPad*%
%ADD11C,1.700000*%
%TD*%
%TA.AperFunction,ComponentPad*%
%ADD12C,1.524000*%
%TD*%
%TA.AperFunction,ComponentPad*%
%ADD13R,2.000000X2.000000*%
%TD*%
%TA.AperFunction,ComponentPad*%
%ADD14C,2.000000*%
%TD*%
%TA.AperFunction,ComponentPad*%
%ADD15C,3.200000*%
%TD*%
%TA.AperFunction,ComponentPad*%
%ADD16C,2.200000*%
%TD*%
%TA.AperFunction,ViaPad*%
%ADD17C,0.600000*%
%TD*%
%TA.AperFunction,Conductor*%
%ADD18C,0.200000*%
%TD*%
G04 APERTURE END LIST*
D10*
%TO.P,J?,1*%
%TO.N,GND*%
X256540000Y-68890000D03*
D11*
%TO.P,J?,2*%
%TO.N,unconnected-(U1-3V3-Pad12)*%
X256540000Y-71430000D03*
%TO.P,J?,3*%
%TO.N,unconnected-(U1-GPIO7{slash}SCL-Pad6)*%
X256540000Y-73970000D03*
%TO.P,J?,4*%
%TO.N,unconnected-(U1-GPIO6{slash}SDA-Pad5)*%
X256540000Y-76510000D03*
%TD*%
D12*
%TO.P,U1,1,GPIO26/ADC0/A0*%
%TO.N,unconnected-(U1-GPIO26{slash}ADC0{slash}A0-Pad1)*%
X197167500Y-67214250D03*
%TO.P,U1,2,GPIO27/ADC1/A1*%
%TO.N,unconnected-(U1-GPIO27{slash}ADC1{slash}A1-Pad2)*%
X197167500Y-69754250D03*
%TO.P,U1,3,GPIO28/ADC2/A2*%
%TO.N,Net-(U1-GPIO28{slash}ADC2{slash}A2)*%
X197167500Y-72294250D03*
%TO.P,U1,4,GPIO29/ADC3/A3*%
%TO.N,Net-(U1-GPIO29{slash}ADC3{slash}A3)*%
X197167500Y-74834250D03*
%TO.P,U1,5,GPIO6/SDA*%
%TO.N,unconnected-(U1-GPIO6{slash}SDA-Pad5)*%
X197167500Y-77374250D03*
%TO.P,U1,6,GPIO7/SCL*%
%TO.N,unconnected-(U1-GPIO7{slash}SCL-Pad6)*%
X197167500Y-79914250D03*
%TO.P,U1,7,GPIO0/TX*%
%TO.N,unconnected-(U1-GPIO0{slash}TX-Pad7)*%
X197167500Y-82454250D03*
%TO.P,U1,8,GPIO1/RX*%
%TO.N,Net-(U1-GPIO1{slash}RX)*%
X212407500Y-82454250D03*
%TO.P,U1,9,GPIO2/SCK*%
%TO.N,Net-(U1-GPIO2{slash}SCK)*%
X212407500Y-79914250D03*
%TO.P,U1,10,GPIO4/MISO*%
%TO.N,Net-(U1-GPIO4{slash}MISO)*%
X212407500Y-77374250D03*
%TO.P,U1,11,GPIO3/MOSI*%
%TO.N,Net-(U1-GPIO3{slash}MOSI)*%
X212407500Y-74834250D03*
%TO.P,U1,12,3V3*%
%TO.N,unconnected-(U1-3V3-Pad12)*%
X212407500Y-72294250D03*
%TO.P,U1,13,GND*%
%TO.N,GND*%
X212407500Y-69754250D03*
%TO.P,U1,14,VBUS*%
%TO.N,+5V*%
X212407500Y-67214250D03*
%TD*%
D13*
%TO.P,SW5,A,A*%
%TO.N,Net-(U1-GPIO28{slash}ADC2{slash}A2)*%
X243310000Y-87630000D03*
D14*
%TO.P,SW5,B,B*%
%TO.N,Net-(U1-GPIO29{slash}ADC3{slash}A3)*%
X243310000Y-92630000D03*
%TO.P,SW5,C,C*%
%TO.N,GND*%
X243310000Y-90130000D03*
D15*
%TO.P,SW5,MP*%
%TO.N,N/C*%
X250810000Y-84530000D03*
X250810000Y-95730000D03*
D14*
%TO.P,SW5,S1*%
X257810000Y-92630000D03*
%TO.P,SW5,S2*%
X257810000Y-87630000D03*
%TD*%
D16*
%TO.P,SW3,1,1*%
%TO.N,Net-(U1-GPIO4{slash}MISO)*%
X229870000Y-104457500D03*
%TO.P,SW3,2,2*%
%TO.N,GND*%
X223520000Y-106997500D03*
%TD*%
%TO.P,SW4,1,1*%
%TO.N,Net-(U1-GPIO3{slash}MOSI)*%
X248920000Y-123507500D03*
%TO.P,SW4,2,2*%
%TO.N,GND*%
X242570000Y-126047500D03*
%TD*%
%TO.P,SW1,1,1*%
%TO.N,Net-(U1-GPIO1{slash}RX)*%
X229870000Y-123507500D03*
%TO.P,SW1,2,2*%
%TO.N,GND*%
X223520000Y-126047500D03*
%TD*%
%TO.P,SW2,1,1*%
%TO.N,Net-(U1-GPIO2{slash}SCK)*%
X210820000Y-123507500D03*
%TO.P,SW2,2,2*%
%TO.N,GND*%
X204470000Y-126047500D03*
%TD*%
D17*
%TO.N,GND*%
X240030000Y-94531000D03*
%TD*%
D18*
%TO.N,GND*%
X233546250Y-69754250D02*
X212407500Y-69754250D01*
X244611000Y-80819000D02*
X233546250Y-69754250D01*
X244611000Y-88829000D02*
X244611000Y-80819000D01*
X243310000Y-90130000D02*
X244611000Y-88829000D01*
X244611000Y-80819000D02*
X256540000Y-68890000D01*
X240030000Y-94531000D02*
X240030000Y-93410000D01*
X240030000Y-93410000D02*
X243310000Y-90130000D01*
%TO.N,Net-(U1-GPIO1{slash}RX)*%
X212407500Y-91290184D02*
X212407500Y-82454250D01*
X229870000Y-108752684D02*
X212407500Y-91290184D01*
X229870000Y-123507500D02*
X229870000Y-108752684D01*
%TO.N,Net-(U1-GPIO3{slash}MOSI)*%
X248920000Y-111346750D02*
X212407500Y-74834250D01*
X248920000Y-123507500D02*
X248920000Y-111346750D01*
%TO.N,Net-(U1-GPIO2{slash}SCK)*%
X210820000Y-81501750D02*
X212407500Y-79914250D01*
X210820000Y-123507500D02*
X210820000Y-81501750D01*
%TO.N,Net-(U1-GPIO4{slash}MISO)*%
X229870000Y-94836750D02*
X212407500Y-77374250D01*
X229870000Y-104457500D02*
X229870000Y-94836750D01*
%TO.N,GND*%
X256540000Y-68890000D02*
X256341250Y-68691250D01*
X243310000Y-90130000D02*
X242530000Y-90130000D01*
X223520000Y-126047500D02*
X223520000Y-106997500D01*
X242570000Y-126047500D02*
X223520000Y-126047500D01*
X204470000Y-126047500D02*
X223520000Y-126047500D01*
%TD*%
M02*
