%TF.GenerationSoftware,KiCad,Pcbnew,9.0.7*%
%TF.CreationDate,2026-01-11T18:10:27+01:00*%
%TF.ProjectId,MacroPad,4d616372-6f50-4616-942e-6b696361645f,rev?*%
%TF.SameCoordinates,Original*%
%TF.FileFunction,Soldermask,Top*%
%TF.FilePolarity,Negative*%
%FSLAX46Y46*%
G04 Gerber Fmt 4.6, Leading zero omitted, Abs format (unit mm)*
G04 Created by KiCad (PCBNEW 9.0.7) date 2026-01-11 18:10:27*
%MOMM*%
%LPD*%
G01*
G04 APERTURE LIST*
G04 Aperture macros list*
%AMRoundRect*
0 Rectangle with rounded corners*
0 $1 Rounding radius*
0 $2 $3 $4 $5 $6 $7 $8 $9 X,Y pos of 4 corners*
0 Add a 4 corners polygon primitive as box body*
4,1,4,$2,$3,$4,$5,$6,$7,$8,$9,$2,$3,0*
0 Add four circle primitives for the rounded corners*
1,1,$1+$1,$2,$3*
1,1,$1+$1,$4,$5*
1,1,$1+$1,$6,$7*
1,1,$1+$1,$8,$9*
0 Add four rect primitives between the rounded corners*
20,1,$1+$1,$2,$3,$4,$5,0*
20,1,$1+$1,$4,$5,$6,$7,0*
20,1,$1+$1,$6,$7,$8,$9,0*
20,1,$1+$1,$8,$9,$2,$3,0*%
G04 Aperture macros list end*
%ADD10R,1.700000X1.700000*%
%ADD11C,1.700000*%
%ADD12RoundRect,0.152400X1.063600X0.609600X-1.063600X0.609600X-1.063600X-0.609600X1.063600X-0.609600X0*%
%ADD13C,1.524000*%
%ADD14RoundRect,0.152400X-1.063600X-0.609600X1.063600X-0.609600X1.063600X0.609600X-1.063600X0.609600X0*%
%ADD15R,2.000000X2.000000*%
%ADD16C,2.000000*%
%ADD17C,3.200000*%
%ADD18C,4.000000*%
%ADD19C,2.200000*%
G04 APERTURE END LIST*
D10*
%TO.C,J?*%
X256540000Y-68890000D03*
D11*
X256540000Y-71430000D03*
X256540000Y-73970000D03*
X256540000Y-76510000D03*
%TD*%
D12*
%TO.C,U1*%
X196332500Y-67214250D03*
D13*
X197167500Y-67214250D03*
D12*
X196332500Y-69754250D03*
D13*
X197167500Y-69754250D03*
D12*
X196332500Y-72294250D03*
D13*
X197167500Y-72294250D03*
D12*
X196332500Y-74834250D03*
D13*
X197167500Y-74834250D03*
D12*
X196332500Y-77374250D03*
D13*
X197167500Y-77374250D03*
D12*
X196332500Y-79914250D03*
D13*
X197167500Y-79914250D03*
D12*
X196332500Y-82454250D03*
D13*
X197167500Y-82454250D03*
X212407500Y-82454250D03*
D14*
X213242500Y-82454250D03*
D13*
X212407500Y-79914250D03*
D14*
X213242500Y-79914250D03*
D13*
X212407500Y-77374250D03*
D14*
X213242500Y-77374250D03*
D13*
X212407500Y-74834250D03*
D14*
X213242500Y-74834250D03*
D13*
X212407500Y-72294250D03*
D14*
X213242500Y-72294250D03*
D13*
X212407500Y-69754250D03*
D14*
X213242500Y-69754250D03*
D13*
X212407500Y-67214250D03*
D14*
X213242500Y-67214250D03*
%TD*%
D15*
%TO.C,SW5*%
X243310000Y-87630000D03*
D16*
X243310000Y-92630000D03*
X243310000Y-90130000D03*
D17*
X250810000Y-84530000D03*
X250810000Y-95730000D03*
D16*
X257810000Y-92630000D03*
X257810000Y-87630000D03*
%TD*%
D11*
%TO.C,SW3*%
X222250000Y-109537500D03*
D18*
X227330000Y-109537500D03*
D11*
X232410000Y-109537500D03*
D19*
X229870000Y-104457500D03*
X223520000Y-106997500D03*
%TD*%
D11*
%TO.C,SW4*%
X241300000Y-128587500D03*
D18*
X246380000Y-128587500D03*
D11*
X251460000Y-128587500D03*
D19*
X248920000Y-123507500D03*
X242570000Y-126047500D03*
%TD*%
D11*
%TO.C,SW1*%
X222250000Y-128587500D03*
D18*
X227330000Y-128587500D03*
D11*
X232410000Y-128587500D03*
D19*
X229870000Y-123507500D03*
X223520000Y-126047500D03*
%TD*%
D11*
%TO.C,SW2*%
X203200000Y-128587500D03*
D18*
X208280000Y-128587500D03*
D11*
X213360000Y-128587500D03*
D19*
X210820000Y-123507500D03*
X204470000Y-126047500D03*
%TD*%
M02*
